<svg width="24" height="24" viewBox="0 0 24 24" fill="none" xmlns="http://www.w3.org/2000/svg">
  <g transform="translate(2.65, 2.25) scale(1.0)">
    <path d="M6.93747 1.69C7.02747 1.148 7.49747 0.75 8.04747 0.75H10.6405C11.1905 0.75 11.6605 1.148 11.7505 1.69L11.9635 2.971C12.0265 3.345 12.2765 3.657 12.6085 3.841C12.6825 3.881 12.7555 3.924 12.8285 3.968C13.1535 4.164 13.5485 4.225 13.9035 4.092L15.1205 3.636C15.3699 3.54221 15.6445 3.53998 15.8953 3.62971C16.1462 3.71945 16.3571 3.89531 16.4905 4.126L17.7865 6.373C17.9195 6.6037 17.9664 6.87413 17.9188 7.13617C17.8712 7.3982 17.7322 7.63485 17.5265 7.804L16.5235 8.631C16.2305 8.872 16.0855 9.244 16.0935 9.623C16.0949 9.70799 16.0949 9.79301 16.0935 9.878C16.0855 10.256 16.2305 10.628 16.5235 10.869L17.5275 11.696C17.9515 12.046 18.0615 12.651 17.7875 13.126L16.4895 15.373C16.3563 15.6036 16.1457 15.7796 15.895 15.8695C15.6443 15.9594 15.3699 15.9574 15.1205 15.864L13.9035 15.408C13.5485 15.275 13.1535 15.336 12.8275 15.532C12.755 15.5761 12.6816 15.6188 12.6075 15.66C12.2765 15.843 12.0265 16.155 11.9635 16.529L11.7505 17.81C11.6605 18.353 11.1905 18.75 10.6405 18.75H8.04647C7.49647 18.75 7.02747 18.352 6.93647 17.81L6.72347 16.529C6.66147 16.155 6.41147 15.843 6.07947 15.659C6.00532 15.6181 5.93197 15.5758 5.85947 15.532C5.53447 15.336 5.13947 15.275 4.78347 15.408L3.56647 15.864C3.3172 15.9575 3.04283 15.9596 2.79217 15.8699C2.5415 15.7802 2.33078 15.6045 2.19747 15.374L0.900469 13.127C0.767412 12.8963 0.720516 12.6259 0.768125 12.3638C0.815735 12.1018 0.954761 11.8652 1.16047 11.696L2.16447 10.869C2.45647 10.629 2.60147 10.256 2.59447 9.878C2.59291 9.79301 2.59291 9.70799 2.59447 9.623C2.60147 9.243 2.45647 8.872 2.16447 8.631L1.16047 7.804C0.955009 7.63489 0.816143 7.39843 0.768541 7.13662C0.720939 6.87481 0.767683 6.6046 0.900469 6.374L2.19747 4.127C2.33066 3.89614 2.54148 3.72006 2.79238 3.63014C3.04328 3.54021 3.31796 3.54229 3.56747 3.636L4.78347 4.092C5.13947 4.225 5.53447 4.164 5.85947 3.968C5.93147 3.924 6.00547 3.882 6.07947 3.84C6.41147 3.657 6.66147 3.345 6.72347 2.971L6.93747 1.69Z" stroke="#1E1E1E" stroke-width="1.5" stroke-linecap="round" stroke-linejoin="round"/>
  </g>
  <g transform="translate(9, 9) scale(0.8)">
    <path d="M6.75 3.75C6.75 4.54565 6.43393 5.30871 5.87132 5.87132C5.30871 6.43393 4.54565 6.75 3.75 6.75C2.95435 6.75 2.19129 6.43393 1.62868 5.87132C1.06607 5.30871 0.75 4.54565 0.75 3.75C0.75 2.95435 1.06607 2.19129 1.62868 1.62868C2.19129 1.06607 2.95435 0.75 3.75 0.75C4.54565 0.75 5.30871 1.06607 5.87132 1.62868C6.43393 2.19129 6.75 2.95435 6.75 3.75Z" stroke="#1E1E1E" stroke-width="1.5" stroke-linecap="round" stroke-linejoin="round"/>
  </g>
</svg>
