<svg viewBox="0 0 19.8602 19.8669" fill="none" xmlns="http://www.w3.org/2000/svg">
<path id="Vector" d="M16.95 2.90686C15.561 1.51846 13.7914 0.573123 11.8652 0.190391C9.93887 -0.192341 7.94236 0.00472248 6.12807 0.756662C4.31378 1.5086 2.76321 2.78164 1.67242 4.41481C0.581639 6.04798 -0.000367664 7.96793 1.74252e-07 9.93186C-1.59328e-07 12.5659 1.04603 15.0922 2.90813 16.9552C4.77022 18.8182 7.29594 19.8655 9.93 19.8669C11.2334 19.8669 12.5243 19.6121 13.73 19.1169C14.9316 18.6094 16.0246 17.8761 16.95 16.9569C17.8726 16.0344 18.6045 14.9392 19.1039 13.7338C19.6032 12.5285 19.8602 11.2366 19.8602 9.93186C19.8602 8.62717 19.6032 7.33525 19.1039 6.12989C18.6045 4.92453 17.8726 3.82934 16.95 2.90686ZM16.25 16.2469C14.8201 17.683 12.9438 18.5894 10.93 18.8169V12.2569H12.81C13.0752 12.2569 13.3296 12.1515 13.5171 11.964C13.7046 11.7764 13.81 11.5221 13.81 11.2569C13.81 10.9916 13.7046 10.7373 13.5171 10.5498C13.3296 10.3622 13.0752 10.2569 12.81 10.2569H10.93V7.51686C10.93 7.25165 11.0354 6.99729 11.2229 6.80976C11.4104 6.62222 11.6648 6.51686 11.93 6.51686H13.13C13.3952 6.51686 13.6496 6.41151 13.8371 6.22397C14.0246 6.03643 14.13 5.78208 14.13 5.51686C14.13 5.25165 14.0246 4.99729 13.8371 4.80976C13.6496 4.62222 13.3952 4.51686 13.13 4.51686H11.43C10.767 4.51686 10.1311 4.78026 9.66223 5.2491C9.19339 5.71794 8.93 6.35382 8.93 7.01686V10.2569H7.06C6.79478 10.2569 6.54043 10.3622 6.35289 10.5498C6.16536 10.7373 6.06 10.9916 6.06 11.2569C6.06 11.5221 6.16536 11.7764 6.35289 11.964C6.54043 12.1515 6.79478 12.2569 7.06 12.2569H8.93V18.8169C7.07289 18.605 5.32928 17.815 3.94545 16.5585C2.56162 15.302 1.60751 13.6426 1.2179 11.8145C0.828287 9.98636 1.02286 8.08205 1.77413 6.37052C2.5254 4.65899 3.79541 3.22674 5.40475 2.27608C7.01409 1.32542 8.88144 0.904401 10.743 1.07248C12.6046 1.24057 14.3663 1.98926 15.7794 3.21281C17.1924 4.43636 18.1853 6.07292 18.6179 7.89134C19.0504 9.70976 18.9008 11.6181 18.19 13.3469C17.7364 14.4296 17.0777 15.4144 16.25 16.2469Z" fill="#1E1E1E"/>
</svg>
