<svg viewBox="0 0 20.0052 19.7" fill="none" xmlns="http://www.w3.org/2000/svg">
<path id="Vector" d="M19.9344 14.41C19.7944 14.03 19.5044 13.85 19.2244 13.66C19.1744 13.63 19.1144 13.6 19.0744 13.58C19.0044 13.53 18.8944 13.49 18.8044 13.44C17.8644 12.94 17.1244 12.31 16.6144 11.57C16.4773 11.358 16.3537 11.1376 16.2444 10.91C16.2044 10.78 16.2044 10.71 16.2344 10.65C16.2644 10.6 16.3044 10.55 16.3544 10.52C16.5044 10.41 16.6844 10.31 16.7944 10.23C17.0044 10.1 17.1544 10 17.2544 9.93C17.6444 9.66 17.9144 9.35 18.0844 9.05C18.3244 8.6 18.3544 8.07 18.1644 7.6C17.9144 6.93 17.2744 6.51 16.5044 6.51C16.3444 6.51 16.1844 6.53 16.0044 6.56C16.0044 6.57 15.9444 6.58 15.9044 6.59C15.9044 6.13 15.8944 5.65 15.8544 5.17C15.7144 3.49 15.1244 2.61 14.5044 1.91C14.1144 1.47 13.6544 1.09 13.1444 0.8C12.2144 0.27 11.1544 0 10.0044 0C8.85436 0 7.80436 0.27 6.87436 0.8C6.35436 1.09 5.89436 1.47 5.50436 1.91C4.88436 2.61 4.30436 3.49 4.15436 5.17C4.11436 5.65 4.10436 6.13 4.11436 6.59C4.06436 6.58 4.00436 6.57 4.00436 6.56C3.82436 6.53 3.66436 6.51 3.50436 6.51C2.73436 6.51 2.09436 6.93 1.84436 7.6C1.65436 8.07 1.68436 8.6 1.92436 9.05C2.09436 9.35 2.36436 9.66 2.75436 9.93C2.85436 10 3.00436 10.1 3.21436 10.24L3.63436 10.51C3.69436 10.55 3.73436 10.6 3.77436 10.65C3.80436 10.72 3.80436 10.79 3.75436 10.92C3.65436 11.15 3.53436 11.35 3.39436 11.57C2.89436 12.3 2.18436 12.92 1.27436 13.41C0.784361 13.67 0.284361 13.85 0.0743614 14.41C-0.0856386 14.85 0.00436157 15.35 0.424362 15.76C0.574362 15.91 0.744362 16.04 0.934362 16.14C1.33436 16.35 1.75436 16.53 2.18436 16.64C2.27436 16.67 2.36436 16.7 2.43436 16.76C2.58436 16.88 2.56436 17.08 2.76436 17.35C2.86436 17.51 3.00436 17.64 3.13436 17.74C3.54436 18.03 4.00436 18.04 4.50436 18.06C4.94436 18.08 5.44436 18.1 6.00436 18.29C6.26436 18.35 6.50436 18.52 6.79436 18.7C7.50436 19.12 8.42436 19.7 10.0044 19.7C11.5744 19.7 12.5044 19.12 13.2244 18.69C13.5044 18.52 13.7544 18.35 14.0044 18.29C14.5544 18.1 15.0644 18.08 15.5044 18.06C16.0044 18.05 16.4644 18.03 16.8744 17.74C17.0444 17.62 17.1844 17.46 17.2944 17.28C17.4344 17.04 17.4344 16.85 17.5644 16.76C17.6344 16.71 17.7144 16.67 17.8044 16.65C18.2444 16.53 18.6644 16.35 19.0644 16.14C19.2744 16.03 19.4544 15.89 19.6044 15.72H19.6144C20.0044 15.31 20.0844 14.85 19.9344 14.41ZM18.5344 15.16C17.6744 15.63 17.1044 15.58 16.6644 15.85C16.5044 15.97 16.4544 16.13 16.4244 16.29L16.3944 16.49C16.3744 16.63 16.3444 16.75 16.2444 16.82C15.9044 17.05 14.9144 16.8 13.6344 17.22C12.5744 17.57 11.9044 18.58 10.0044 18.58C8.10436 18.58 7.45436 17.58 6.37436 17.22C5.10436 16.8 4.10436 17.05 3.77436 16.82C3.50436 16.63 3.72436 16.11 3.34436 15.85C2.90436 15.58 2.33436 15.63 1.50436 15.16C1.19436 15 1.14436 14.85 1.18436 14.78C1.22436 14.69 1.34436 14.62 1.42436 14.58C3.07436 13.79 4.00436 12.76 4.47436 11.95C4.91436 11.23 5.00436 10.68 5.03436 10.6C5.06436 10.39 5.09436 10.23 4.86436 10.02C4.64436 9.81 3.66436 9.21 3.39436 9.02C2.93436 8.7 2.74436 8.39 2.88436 8C3.00436 7.73 3.23436 7.63 3.50436 7.63C3.58436 7.63 3.66436 7.64 3.74436 7.66C4.24436 7.76 4.72436 8.01 5.00436 8.08C5.03436 8.09 5.06436 8.09 5.10436 8.09C5.19436 8.09 5.24436 8.06 5.27436 8C5.28436 7.96 5.29436 7.91 5.29436 7.85C5.25436 7.31 5.18436 6.26 5.26436 5.27C5.30436 4.85 5.37436 4.49 5.46436 4.18C5.66436 3.5 6.00436 3.05 6.34436 2.64C6.59436 2.35 7.75436 1.12 10.0044 1.12C11.8544 1.12 12.9644 1.96 13.4444 2.41C13.5444 2.51 13.6244 2.59 13.6644 2.64C14.0444 3.08 14.3844 3.56 14.5844 4.32C14.6544 4.59 14.7144 4.91 14.7444 5.27C14.8244 6.25 14.7544 7.31 14.7144 7.85C14.7144 7.89 14.7144 7.93 14.7244 7.96C14.7344 8.05 14.7944 8.09 14.9044 8.09C14.9444 8.09 14.9744 8.09 15.0044 8.08C15.2844 8.01 15.7644 7.76 16.2644 7.65C16.3444 7.64 16.4244 7.63 16.5044 7.63C16.7544 7.63 17.0044 7.72 17.1044 7.95L17.1144 7.99H17.1244V8C17.2744 8.38 17.0744 8.7 16.6244 9.01C16.3544 9.2 15.3644 9.81 15.1444 10.01C14.9144 10.23 14.9444 10.39 14.9744 10.6C15.0044 10.7 15.1844 11.65 16.0844 12.71C16.6344 13.35 17.4244 14.02 18.5844 14.58C18.6544 14.61 18.7444 14.66 18.7944 14.72C18.8244 14.77 18.8444 14.81 18.8344 14.85C18.8244 14.95 18.7344 15.05 18.5344 15.16Z" fill="#1E1E1E"/>
</svg>
