<svg width="40" height="40" viewBox="0 0 40 40" fill="none" xmlns="http://www.w3.org/2000/svg">
<path d="M20 30V21.2501M20 21.2501C20.8433 21.2507 21.6832 21.1449 22.5 20.9351M20 21.2501C19.1567 21.2507 18.3167 21.1449 17.5 20.9351M23.75 33.3984C21.2721 33.8689 18.7278 33.8689 16.25 33.3984M22.5 37.37C20.8379 37.5441 19.1621 37.5441 17.5 37.37M23.75 30V29.6801C23.75 28.0417 24.8466 26.6417 26.2633 25.82C28.6433 24.4418 30.5023 22.3171 31.5523 19.7751C32.6023 17.2332 32.7847 14.4159 32.0711 11.7598C31.3575 9.10369 29.7879 6.75707 27.6054 5.08352C25.4229 3.40997 22.7494 2.50293 19.9991 2.50293C17.2489 2.50293 14.5754 3.40997 12.3929 5.08352C10.2104 6.75707 8.64076 9.10369 7.9272 11.7598C7.21363 14.4159 7.39597 17.2332 8.44596 19.7751C9.49595 22.3171 11.355 24.4418 13.735 25.82C15.1516 26.6417 16.25 28.0417 16.25 29.6801V30" stroke="#1E1E1E" stroke-width="1.5" stroke-linecap="round" stroke-linejoin="round"/>
</svg>
