<svg viewBox="0 0 21.5 21.5" fill="none" xmlns="http://www.w3.org/2000/svg">
<path id="Vector" d="M4.75 20.75H3.15C2.51348 20.75 1.90303 20.4971 1.45294 20.0471C1.00286 19.597 0.75 18.9865 0.75 18.35V16.75M16.75 20.75H18.35C18.9865 20.75 19.597 20.4971 20.0471 20.0471C20.4971 19.597 20.75 18.9865 20.75 18.35V16.75M20.75 4.75V3.15C20.75 2.51348 20.4971 1.90303 20.0471 1.45294C19.597 1.00286 18.9865 0.75 18.35 0.75H16.75M4.75 0.75H3.15C2.51348 0.75 1.90303 1.00286 1.45294 1.45294C1.00286 1.90303 0.75 2.51348 0.75 3.15V4.75M16.75 7.75V13.75M12.75 7.75V13.75M8.75 7.75V13.75M4.75 7.75V13.75" stroke="#2DD916" stroke-width="1.5" stroke-miterlimit="10" stroke-linecap="round" stroke-linejoin="round"/>
</svg>
