<svg viewBox="0 0 21.5 15.7" fill="none" xmlns="http://www.w3.org/2000/svg">
<g id="Group">
<path id="Vector" d="M12.75 7.85L9.25 9.85V5.85L12.75 7.85Z" fill="#1E1E1E" stroke="#1E1E1E" stroke-width="1.5" stroke-linecap="round" stroke-linejoin="round"/>
<path id="Vector_2" d="M0.750002 8.558V7.142C0.750002 4.247 0.750002 2.799 1.655 1.868C2.561 0.936 3.987 0.896 6.838 0.815C8.188 0.777 9.568 0.75 10.75 0.75C11.932 0.75 13.311 0.777 14.662 0.815C17.513 0.896 18.939 0.936 19.844 1.868C20.749 2.8 20.75 4.248 20.75 7.142V8.557C20.75 11.453 20.75 12.9 19.845 13.832C18.939 14.763 17.514 14.804 14.662 14.884C13.312 14.923 11.932 14.95 10.75 14.95C9.568 14.95 8.189 14.923 6.838 14.884C3.987 14.804 2.561 14.764 1.655 13.832C0.749002 12.9 0.750002 11.452 0.750002 8.558Z" stroke="#1E1E1E" stroke-width="1.5"/>
</g>
</svg>
