<svg width="24" height="24" viewBox="0 0 24 24" fill="none" xmlns="http://www.w3.org/2000/svg">
  <g transform="translate(3, 3) scale(0.923)">
    <path d="M13.75 0.75C16.51 0.75 18.75 2.99 18.75 5.75V13.75C18.75 16.51 16.51 18.75 13.75 18.75H5.75C2.99 18.75 0.75 16.51 0.75 13.75V5.75C0.75 2.99 2.99 0.75 5.75 0.75H9.75H13.75Z" stroke="#1E1E1E" stroke-width="1.5" stroke-linecap="round" stroke-linejoin="round"/>
    <path d="M9.75 5.75C11.96 5.75 13.75 7.54 13.75 9.75C13.75 11.96 11.96 13.75 9.75 13.75C7.54 13.75 5.75 11.96 5.75 9.75C5.75 7.54 7.54 5.75 9.75 5.75Z" stroke="#1E1E1E" stroke-width="1.5" stroke-linecap="round" stroke-linejoin="round"/>
  </g>
  <g transform="translate(16, 6)">
    <path d="M1 2C1.55228 2 2 1.55228 2 1C2 0.447715 1.55228 0 1 0C0.447715 0 0 0.447715 0 1C0 1.55228 0.447715 2 1 2Z" fill="#1E1E1E"/>
  </g>
</svg>
