<svg viewBox="0 0 17.5 19.5" fill="none" xmlns="http://www.w3.org/2000/svg">
<path id="Vector" d="M5.82158 8.32157C3.09274 8.51443 0.75 10.494 0.75 13.5279C0.75 16.4121 3.02074 18.75 5.82158 18.75C8.62242 18.75 10.8936 16.4121 10.8936 13.5279L10.7471 7.01786C12.0216 8.019 14.0574 8.62414 15.9412 8.721C16.278 8.73814 16.6014 8.58257 16.6801 8.24829C16.7201 8.07814 16.75 7.85657 16.75 7.57414C16.75 7.29172 16.7205 7.07015 16.6801 6.9C16.6014 6.56572 16.2776 6.42086 15.9416 6.38657C13.3942 6.12729 10.9955 4.02943 10.6527 1.55229C10.6089 1.23943 10.4367 0.950146 10.1357 0.870432C9.83109 0.790147 9.51769 0.749678 9.20305 0.750003C8.88799 0.749569 8.57416 0.790038 8.26916 0.870432C7.96895 0.950146 7.78958 1.23729 7.78242 1.55357L7.51211 13.5279C7.51211 14.4891 6.75547 15.2687 5.82158 15.2687C4.88768 15.2687 4.13105 14.4891 4.13105 13.5279C4.13105 12.5284 4.95211 11.8851 5.82158 11.7206" stroke="#1E1E1E" stroke-width="1.5" stroke-linecap="round" stroke-linejoin="round"/>
</svg>
