<svg width="24" height="24" viewBox="0 0 24 24" fill="none" xmlns="http://www.w3.org/2000/svg">
  <g transform="translate(0.25, 1.75)">
    <path fill-rule="evenodd" clip-rule="evenodd" d="M19.7093 2.98481e-07C18.8363 2.98481e-07 18.0733 0.479 17.6713 1.188L14.0713 0.449C13.9017 0.41425 13.7252 0.439284 13.5719 0.519852C13.4186 0.60042 13.2979 0.731557 13.2303 0.891C12.8193 1.857 12.2033 3.322 11.6883 4.576C11.5063 5.02 11.3363 5.439 11.1933 5.801C9.14635 5.883 7.25035 6.418 5.69935 7.285C5.44969 6.86634 5.10382 6.51324 4.69041 6.25498C4.277 5.99672 3.80797 5.84076 3.32223 5.80002C2.83648 5.75929 2.34803 5.83495 1.89738 6.02075C1.44673 6.20654 1.04687 6.4971 0.730976 6.86834C0.41508 7.23957 0.192249 7.68077 0.0809671 8.15534C-0.0303147 8.62992 -0.02684 9.12419 0.0911031 9.59715C0.209046 10.0701 0.438058 10.5081 0.759143 10.8749C1.08023 11.2416 1.48413 11.5266 1.93735 11.706C1.80401 12.186 1.73701 12.683 1.73635 13.197C1.73635 15.339 2.94535 17.209 4.76135 18.514C6.57935 19.821 9.05135 20.605 11.7493 20.605C14.4463 20.605 16.9193 19.821 18.7373 18.515C20.5533 17.209 21.7623 15.339 21.7623 13.197C21.7623 12.683 21.6923 12.185 21.5623 11.707C22.0154 11.5275 22.4192 11.2425 22.7401 10.8758C23.0611 10.5091 23.29 10.0711 23.4079 9.59822C23.5258 9.12534 23.5292 8.63118 23.418 8.1567C23.3067 7.68222 23.084 7.2411 22.7682 6.86991C22.4524 6.49871 22.0526 6.20815 21.6021 6.0223C21.1516 5.83645 20.6633 5.76068 20.1776 5.80126C19.692 5.84184 19.223 5.9976 18.8095 6.25564C18.3961 6.51368 18.0502 6.86655 17.8003 7.285C16.3733 6.488 14.6553 5.971 12.7973 5.829C12.8853 5.61167 12.9787 5.38367 13.0773 5.145C13.4953 4.124 13.9833 2.96 14.3713 2.042L17.3893 2.662C17.4506 3.10765 17.6388 3.52624 17.9316 3.86778C18.2243 4.20933 18.6092 4.45938 19.0402 4.58807C19.4713 4.71676 19.9302 4.71865 20.3623 4.59352C20.7944 4.46839 21.1813 4.22151 21.4769 3.8824C21.7724 3.54328 21.9641 3.12625 22.029 2.68113C22.0939 2.236 22.0293 1.7816 21.8429 1.37219C21.6566 0.96279 21.3563 0.615695 20.9779 0.372369C20.5996 0.129043 20.1592 -0.000226714 19.7093 2.98481e-07ZM18.8673 2.342C18.8673 2.11856 18.9561 1.90426 19.1141 1.74626C19.2721 1.58826 19.4864 1.4995 19.7098 1.4995C19.9333 1.4995 20.1476 1.58826 20.3056 1.74626C20.4636 1.90426 20.5523 2.11856 20.5523 2.342C20.5523 2.56545 20.4636 2.77974 20.3056 2.93774C20.1476 3.09574 19.9333 3.1845 19.7098 3.1845C19.4864 3.1845 19.2721 3.09574 19.1141 2.93774C18.9561 2.77974 18.8673 2.56545 18.8673 2.342ZM11.7493 7.29C11.9027 7.29 12.056 7.293 12.2093 7.299C12.2068 7.33051 12.2028 7.36187 12.1973 7.393L12.1953 7.398L12.1983 7.388L12.2273 7.3C14.4513 7.386 16.4283 8.07 17.8613 9.1C19.3983 10.204 20.2623 11.663 20.2623 13.198C20.2623 14.734 19.3973 16.193 17.8623 17.298C16.3263 18.4 14.1683 19.106 11.7493 19.106C9.33035 19.106 7.17235 18.4 5.63735 17.297C4.10035 16.193 3.23635 14.734 3.23635 13.198C3.23635 11.663 4.10035 10.204 5.63635 9.1C7.17235 7.996 9.33135 7.289 11.7493 7.289M1.49935 8.855C1.49943 8.50593 1.61614 8.16689 1.83094 7.89174C2.04574 7.61658 2.34632 7.42108 2.68493 7.33628C3.02354 7.25149 3.38078 7.28225 3.69991 7.4237C4.01904 7.56515 4.28176 7.80917 4.44635 8.117C3.64735 8.747 2.98335 9.49 2.51235 10.321C2.21482 10.2081 1.95862 10.0074 1.77771 9.74564C1.5968 9.48383 1.49973 9.17323 1.49935 8.855ZM20.9863 10.321C20.5153 9.491 19.8513 8.746 19.0523 8.117C19.1718 7.89387 19.3435 7.70302 19.5528 7.56078C19.7622 7.41853 20.0028 7.32914 20.2543 7.30026C20.5057 7.27137 20.7604 7.30385 20.9965 7.39491C21.2326 7.48598 21.4432 7.63291 21.6101 7.82314C21.777 8.01337 21.8953 8.24121 21.9549 8.48717C22.0146 8.73313 22.0137 8.98987 21.9523 9.23541C21.891 9.48095 21.7711 9.70797 21.6029 9.89704C21.4347 10.0861 21.2231 10.2316 20.9863 10.321Z" fill="#1E1E1E"/>
  </g>
  <g transform="translate(7.01, 13.8)">
    <path d="M9.975 1.4475C9.975 1.8314 9.8225 2.19958 9.55104 2.47104C9.27958 2.7425 8.9114 2.895 8.5275 2.895C8.1436 2.895 7.77542 2.7425 7.50396 2.47104C7.2325 2.19958 7.08 1.8314 7.08 1.4475C7.08 1.0636 7.2325 0.695422 7.50396 0.423964C7.77542 0.152505 8.1436 0 8.5275 0C8.9114 0 9.27958 0.152505 9.55104 0.423964C9.8225 0.695422 9.975 1.0636 9.975 1.4475ZM1.447 2.8945C1.83077 2.8945 2.19882 2.74205 2.47018 2.47068C2.74155 2.19932 2.894 1.83127 2.894 1.4475C2.894 1.06373 2.74155 0.695682 2.47018 0.424316C2.19882 0.152951 1.83077 0.000500679 1.447 0.000500679C1.06323 0.000500679 0.695181 0.152951 0.423816 0.424316C0.152451 0.695682 0 1.06373 0 1.4475C0 1.83127 0.152451 2.19932 0.423816 2.47068C0.695181 2.74205 1.06323 2.8945 1.447 2.8945ZM1.84 4.5765C1.67203 4.47769 1.4722 4.44814 1.28283 4.49411C1.09345 4.54007 0.929402 4.65794 0.825419 4.82275C0.721436 4.98756 0.685685 5.18638 0.725738 5.37709C0.76579 5.56781 0.8785 5.73544 1.04 5.8445L1.385 6.0625C2.463 6.74243 3.71148 7.10327 4.986 7.10327C6.26052 7.10327 7.509 6.74243 8.587 6.0625L8.932 5.8455C9.01539 5.79297 9.08762 5.72453 9.14456 5.64409C9.2015 5.56365 9.24203 5.47278 9.26385 5.37667C9.28568 5.28056 9.28835 5.1811 9.27174 5.08395C9.25512 4.98681 9.21953 4.89389 9.167 4.8105C9.11447 4.72711 9.04603 4.65488 8.96559 4.59794C8.88515 4.541 8.79428 4.50047 8.69817 4.47865C8.60206 4.45682 8.5026 4.45415 8.40545 4.47076C8.30831 4.48738 8.21539 4.52297 8.132 4.5755L7.787 4.7935C6.9485 5.32243 5.97738 5.60313 4.986 5.60313C3.99462 5.60313 3.0235 5.32243 2.185 4.7935L1.84 4.5765Z" fill="#1E1E1E"/>
  </g>
</svg>
