<svg viewBox="0 0 21.0001 21.0001" fill="none" xmlns="http://www.w3.org/2000/svg">
<path id="Vector" d="M11.69 7.18803C12.3399 7.49828 12.9057 7.95996 13.3401 8.53427C13.7745 9.10857 14.0648 9.77874 14.1865 10.4885C14.3081 11.1982 14.2577 11.9268 14.0394 12.613C13.8212 13.2992 13.4414 13.923 12.932 14.432L8.43203 18.932C7.58811 19.7759 6.44351 20.2501 5.25003 20.2501C4.05655 20.2501 2.91195 19.7759 2.06803 18.932C1.22411 18.0881 0.75 16.9435 0.75 15.75C0.75 14.5565 1.22411 13.4119 2.06803 12.568L3.82503 10.811M17.175 10.189L18.932 8.43203C19.7759 7.58811 20.2501 6.44351 20.2501 5.25003C20.2501 4.05655 19.7759 2.91195 18.932 2.06803C18.0881 1.22411 16.9435 0.75 15.75 0.75C14.5565 0.75 13.4119 1.22411 12.568 2.06803L8.06803 6.56803C7.55866 7.07703 7.17889 7.70084 6.96061 8.38705C6.74233 9.07326 6.69191 9.80184 6.8136 10.5116C6.93528 11.2213 7.22552 11.8915 7.65992 12.4658C8.09432 13.0401 8.6602 13.5018 9.31003 13.812" stroke="#1E1E1E" stroke-width="1.5" stroke-linecap="round" stroke-linejoin="round"/>
</svg>
