<svg viewBox="0 0 24 24" fill="none" xmlns="http://www.w3.org/2000/svg">
<rect x="1" y="2" width="2" height="4" fill="#1E1E1E"/>
<rect x="4" y="2" width="1" height="4" fill="#1E1E1E"/>
<rect x="6" y="2" width="3" height="4" fill="#1E1E1E"/>
<rect x="10" y="2" width="1" height="4" fill="#1E1E1E"/>
<rect x="12" y="2" width="2" height="4" fill="#1E1E1E"/>
<rect x="15" y="2" width="1" height="4" fill="#1E1E1E"/>
<rect x="17" y="2" width="3" height="4" fill="#1E1E1E"/>
<rect x="21" y="2" width="2" height="4" fill="#1E1E1E"/>
<rect x="1" y="7" width="1" height="4" fill="#1E1E1E"/>
<rect x="3" y="7" width="2" height="4" fill="#1E1E1E"/>
<rect x="6" y="7" width="1" height="4" fill="#1E1E1E"/>
<rect x="8" y="7" width="3" height="4" fill="#1E1E1E"/>
<rect x="12" y="7" width="1" height="4" fill="#1E1E1E"/>
<rect x="14" y="7" width="2" height="4" fill="#1E1E1E"/>
<rect x="17" y="7" width="1" height="4" fill="#1E1E1E"/>
<rect x="19" y="7" width="1" height="4" fill="#1E1E1E"/>
<rect x="21" y="7" width="2" height="4" fill="#1E1E1E"/>
<rect x="1" y="12" width="3" height="4" fill="#1E1E1E"/>
<rect x="5" y="12" width="1" height="4" fill="#1E1E1E"/>
<rect x="7" y="12" width="2" height="4" fill="#1E1E1E"/>
<rect x="10" y="12" width="1" height="4" fill="#1E1E1E"/>
<rect x="12" y="12" width="3" height="4" fill="#1E1E1E"/>
<rect x="16" y="12" width="1" height="4" fill="#1E1E1E"/>
<rect x="18" y="12" width="2" height="4" fill="#1E1E1E"/>
<rect x="21" y="12" width="2" height="4" fill="#1E1E1E"/>
<rect x="1" y="17" width="2" height="4" fill="#1E1E1E"/>
<rect x="4" y="17" width="1" height="4" fill="#1E1E1E"/>
<rect x="6" y="17" width="1" height="4" fill="#1E1E1E"/>
<rect x="8" y="17" width="3" height="4" fill="#1E1E1E"/>
<rect x="12" y="17" width="2" height="4" fill="#1E1E1E"/>
<rect x="15" y="17" width="1" height="4" fill="#1E1E1E"/>
<rect x="17" y="17" width="2" height="4" fill="#1E1E1E"/>
<rect x="21" y="17" width="2" height="4" fill="#1E1E1E"/>
</svg>
