<svg viewBox="0 0 19.5 19.5" fill="none" xmlns="http://www.w3.org/2000/svg">
<path id="Vector" d="M14.25 9.74994C14.25 10.9434 13.7759 12.088 12.932 12.9319C12.0881 13.7758 10.9435 14.2499 9.75 14.2499C8.55653 14.2499 7.41194 13.7758 6.56802 12.9319C5.72411 12.088 5.25 10.9434 5.25 9.74994C5.25 8.55646 5.72411 7.41187 6.56802 6.56796C7.41194 5.72404 8.55653 5.24994 9.75 5.24994C10.9435 5.24994 12.0881 5.72404 12.932 6.56796C13.7759 7.41187 14.25 8.55646 14.25 9.74994ZM14.25 9.74994C14.25 11.4069 15.257 12.7499 16.5 12.7499C17.743 12.7499 18.75 11.4069 18.75 9.74994C18.75 7.66774 18.028 5.64997 16.707 4.04042C15.3861 2.43087 13.5479 1.32913 11.5057 0.922934C9.46355 0.516734 7.3437 0.831202 5.50737 1.81276C3.67104 2.79431 2.23187 4.38222 1.43506 6.30593C0.638253 8.22963 0.533114 10.3701 1.13756 12.3626C1.742 14.3552 3.01863 16.0765 4.74992 17.2333C6.48121 18.3901 8.56004 18.9108 10.6322 18.7067C12.7044 18.5026 14.6417 17.5863 16.114 16.1139M14.25 9.74994V5.99994" stroke="#C20EEF" stroke-width="1.5" stroke-linecap="round" stroke-linejoin="round"/>
</svg>
