<svg viewBox="0 0 19.487 20" fill="none" xmlns="http://www.w3.org/2000/svg">
<g id="Group">
<path id="Vector" d="M13.597 0.75H7.43C6.06748 0.750795 4.76102 1.29254 3.79776 2.25618C2.8345 3.21981 2.29327 4.52648 2.293 5.889V14.111C2.293 16.949 4.593 19.25 7.431 19.25H13.598C16.436 19.25 18.737 16.95 18.737 14.111V5.89C18.737 3.052 16.437 0.751 13.598 0.751M0.75 6.403H3.833M0.75 13.597H3.833" stroke="#1E1E1E" stroke-width="1.5" stroke-linecap="round" stroke-linejoin="round"/>
<path id="Vector_2" d="M14.413 14.745C14.413 13.092 12.57 11.749 10.918 11.749C9.266 11.749 7.423 13.092 7.423 14.744M10.918 9.368C11.2263 9.368 11.5317 9.30727 11.8165 9.18927C12.1014 9.07127 12.3603 8.89832 12.5783 8.68029C12.7963 8.46225 12.9693 8.20341 13.0873 7.91854C13.2053 7.63367 13.266 7.32834 13.266 7.02C13.266 6.71166 13.2053 6.40633 13.0873 6.12146C12.9693 5.83659 12.7963 5.57775 12.5783 5.35971C12.3603 5.14168 12.1014 4.96873 11.8165 4.85073C11.5317 4.73273 11.2263 4.672 10.918 4.672C10.2953 4.672 9.69805 4.91938 9.25771 5.35971C8.81738 5.80005 8.57 6.39727 8.57 7.02C8.57 7.64273 8.81738 8.23995 9.25771 8.68029C9.69805 9.12062 10.2953 9.368 10.918 9.368Z" stroke="#1E1E1E" stroke-width="1.5" stroke-linecap="round" stroke-linejoin="round"/>
</g>
</svg>
